<svg id="레드리스트_콘텐츠1_전화아이콘" xmlns="http://www.w3.org/2000/svg" width="8" height="9">
    <defs>
        <style>
            .cls-1{fill:#0fd38f}
        </style>
    </defs>
    <path id="패스_319" data-name="패스 319" class="cls-1" d="M779.276 798.679a6.307 6.307 0 0 1 .093-.627c.075-.3.176-.6.266-.9.007-.02.019-.038.031-.065.024.024.044.042.062.062q1 1.094 2.007 2.187a.127.127 0 0 1 .029.148.877.877 0 0 0 .166.88q.6.67 1.21 1.32a.715.715 0 0 0 .815.178c.041-.015.07-.028.108.014q1.029 1.127 2.061 2.251a.234.234 0 0 1 .016.025.73.73 0 0 1-.065.039 3.708 3.708 0 0 1-1.313.371.7.7 0 0 0-.077.016h-.514c-.029-.005-.057-.014-.086-.017a3.776 3.776 0 0 1-2.414-1.179c-.426-.442-.836-.9-1.248-1.358a4.409 4.409 0 0 1-1.064-2.194c-.035-.189-.054-.381-.081-.571z" transform="translate(-779.276 -795.578)"/>
    <path id="패스_320" data-name="패스 320" class="cls-1" d="M780.409 796.1a.92.92 0 0 1 1.544-.258q.677.718 1.335 1.457a1.111 1.111 0 0 1 0 1.468c-.074.085-.149.168-.215.242z" transform="translate(-779.409 -795.522)"/>
    <path id="패스_321" data-name="패스 321" class="cls-1" d="M787.871 803.65c.142-.142.25-.27.375-.371a.875.875 0 0 1 1.188.067c.48.5.954 1.013 1.41 1.539a1.108 1.108 0 0 1-.237 1.623c-.059.039-.082 0-.116-.031l-.645-.7-1.867-2.035a1.077 1.077 0 0 0-.108-.092z" transform="translate(-783.098 -798.889)"/>
</svg>
