<svg xmlns="http://www.w3.org/2000/svg" width="9" height="8.998">
    <path data-name="패스 322" d="M794.788 767.213v7.311a.183.183 0 0 0-.012.023.96.96 0 0 1-1.013.821h-6.949a1.246 1.246 0 0 1-.279-.027.958.958 0 0 1-.745-.969v-7.064a.945.945 0 0 1 .386-.745 1.153 1.153 0 0 1 .456-.192h7.312a.374.374 0 0 0 .048.016.9.9 0 0 1 .635.425 2.522 2.522 0 0 1 .161.401zm-3.374 1.086h-1.431a.318.318 0 0 0-.327.389.325.325 0 0 0 .353.25h2.81a.666.666 0 0 0 .088 0 .319.319 0 0 0-.062-.635c-.477-.003-.954-.003-1.431-.003zm0 2.25h-1.431a.318.318 0 0 0-.327.39.322.322 0 0 0 .345.249h2.827a.67.67 0 0 0 .079 0 .32.32 0 0 0-.062-.636c-.477-.006-.954-.004-1.431-.004zm0 2.889h1.431a.32.32 0 1 0-.012-.638h-2.843a.513.513 0 0 0-.07 0 .319.319 0 0 0 .064.635c.477.004.954.002 1.431.002zM788.2 768.3h-.466a.319.319 0 1 0 0 .638h.93a.32.32 0 1 0 0-.639l-.464.001zm0 2.889h.466a.32.32 0 1 0 0-.639h-.93a.32.32 0 1 0 0 .639c.15.001.306-.001.464-.001zm-.008 2.25h.474a.32.32 0 1 0 0-.639h-.93a.32.32 0 1 0 0 .639c.148.001.301-.002.453-.002z" transform="translate(-785.788 -766.369)" style="fill:#ff1744"/>
</svg>
