<svg id="푸터_로고" xmlns="http://www.w3.org/2000/svg" xmlns:xlink="http://www.w3.org/1999/xlink" width="100" height="22">
    <defs>
        <linearGradient id="linear-gradient" y1=".5" x2="1" y2=".5" gradientUnits="objectBoundingBox">
            <stop offset=".358" stop-color="#ff5c17"/>
            <stop offset=".503" stop-color="#ff6917"/>
            <stop offset=".691" stop-color="#ff7117"/>
            <stop offset="1" stop-color="#ff7417"/>
        </linearGradient>
        <linearGradient id="linear-gradient-8" x1="163.754" y1="208.916" x2="164.754" y2="208.916" xlink:href="#linear-gradient"/>
        <style>
            .cls-1{fill:#04ba89}.cls-2{fill:url(#linear-gradient)}
        </style>
    </defs>
    <path id="패스_50" data-name="패스 50" class="cls-1" d="M1030.842 76.277a1.086 1.086 0 1 1-2.142-.007" transform="translate(-946 -60.94)"/>
    <path id="패스_51" data-name="패스 51" class="cls-1" d="M1034.375 76.277a1.086 1.086 0 1 1-2.142-.007" transform="translate(-947.719 -60.94)"/>
    <path id="패스_52" data-name="패스 52" class="cls-1" d="M1037.908 76.277a1.086 1.086 0 1 1-2.142-.007" transform="translate(-949.438 -60.94)"/>
    <path id="패스_53" data-name="패스 53" class="cls-1" d="M1041.442 76.277a1.086 1.086 0 1 1-2.142-.007" transform="translate(-951.156 -60.94)"/>
    <path id="패스_54" data-name="패스 54" class="cls-1" d="M1044.975 76.277a1.086 1.086 0 1 1-2.142-.007" transform="translate(-952.873 -60.94)"/>
    <path id="패스_55" data-name="패스 55" class="cls-1" d="M1048.508 76.277a1.086 1.086 0 1 1-2.142-.007" transform="translate(-954.592 -60.94)"/>
    <path id="패스_56" data-name="패스 56" class="cls-1" d="M1052.041 76.277a1.086 1.086 0 1 1-2.142-.007" transform="translate(-956.311 -60.94)"/>
    <path id="패스_57" data-name="패스 57" class="cls-1" d="M1055.574 76.277a1.086 1.086 0 1 1-2.142-.007" transform="translate(-958.029 -60.94)"/>
    <path id="패스_58" data-name="패스 58" class="cls-1" d="M1059.107 76.277a1.086 1.086 0 1 1-2.142-.007" transform="translate(-959.748 -60.94)"/>
    <path id="패스_59" data-name="패스 59" class="cls-2" d="M874.089 55.556h6.88a1.555 1.555 0 0 1 1.169.6 1.953 1.953 0 0 1 .478 1.288 1.948 1.948 0 0 1-1.7 1.886h-11q-.532 0-.532.4v10.889a2.165 2.165 0 0 1-.6 1.434 1.74 1.74 0 0 1-1.421.5 1.709 1.709 0 0 1-1.342-.584 2.264 2.264 0 0 1-.544-1.488V57.575a2.043 2.043 0 0 1 .717-1.594 1.233 1.233 0 0 1 .664-.359 4.282 4.282 0 0 1 .744-.066z" transform="translate(-865.481 -51.194)"/>
    <path id="패스_60" data-name="패스 60" class="cls-2" d="M911.509 72.615h-6.19a2.066 2.066 0 0 1-2.338-2.337V57.845c0-.141 0-.274.013-.4a1.4 1.4 0 0 1 .093-.4 1.822 1.822 0 0 1 1.435-1.461 2.073 2.073 0 0 1 .585-.159c.177-.017.354-.027.531-.027h12.115a2.865 2.865 0 0 1 1.846.6 2.406 2.406 0 0 1 .6 1.846v12.527a.237.237 0 0 1-.053.173 2.023 2.023 0 0 1-2.178 2.072h-6.456zm4.7-8.607v-3.8q0-.611-.16-.718a1.7 1.7 0 0 0-.77-.106h-7.465a1.443 1.443 0 0 0-.691.106q-.159.107-.16.691v7.624q0 .612.146.7a1.259 1.259 0 0 0 .6.093h7.677a1.52 1.52 0 0 0 .678-.093c.1-.062.146-.3.146-.7z" transform="translate(-883.98 -51.118)"/>
    <path id="패스_61" data-name="패스 61" class="cls-2" d="M949.164 72.615h-6.19a2.066 2.066 0 0 1-2.338-2.337V57.845c0-.141 0-.274.013-.4a1.438 1.438 0 0 1 .093-.4 1.823 1.823 0 0 1 1.434-1.461 2.073 2.073 0 0 1 .584-.159c.177-.017.354-.027.532-.027h12.114a2.864 2.864 0 0 1 1.846.6 2.407 2.407 0 0 1 .6 1.846v12.527a.239.239 0 0 1-.053.173 2.024 2.024 0 0 1-2.179 2.072h-6.456zm4.7-8.607v-3.8q0-.611-.159-.718a1.7 1.7 0 0 0-.77-.106h-7.466a1.441 1.441 0 0 0-.69.106q-.159.107-.16.691v7.624q0 .612.146.7a1.258 1.258 0 0 0 .6.093h7.678a1.52 1.52 0 0 0 .677-.093q.146-.092.146-.7z" transform="translate(-902.556 -51.118)"/>
    <path id="패스_62" data-name="패스 62" class="cls-2" d="M995.56 55.3v8.159q0 .3-.013.588a2.061 2.061 0 0 1-.093.538 1.582 1.582 0 0 1-.611 1 2.338 2.338 0 0 1-1.143.425h-13.5a1.83 1.83 0 0 1-1.78-1.429 1.539 1.539 0 0 1-.12-.539q-.014-.287-.013-.589V52.474c0-.2 0-.384.013-.551a2.225 2.225 0 0 1 1.926-1.98h8.4a1.8 1.8 0 0 1 1.328.5 1.94 1.94 0 0 1 .558 1.285 1.762 1.762 0 0 1-.532 1.273 1.815 1.815 0 0 1-1.355.541h-5.751a.626.626 0 0 0-.4.1.489.489 0 0 0-.133.363q-.014.263-.013.789v6.807c0 .2 0 .355.013.463a.354.354 0 0 0 .093.238.426.426 0 0 0 .266.088c.124.009.292.013.5.013h7.253c.266 0 .469 0 .611-.013a.493.493 0 0 0 .318-.113.45.45 0 0 0 .12-.313q.013-.213.013-.588V46.764a1.727 1.727 0 0 1 .08-.525c.053-.167.106-.342.16-.526a2.079 2.079 0 0 1 .77-.9 2.019 2.019 0 0 1 1.115-.325 2.376 2.376 0 0 1 1.169.425 1.687 1.687 0 0 1 .637 1 2.266 2.266 0 0 1 .093.6q.013.351.013.626z" transform="translate(-921.134 -44.487)"/>
    <path id="패스_63" data-name="패스 63" class="cls-2" d="M1016.051 64.287v-6.243a2.136 2.136 0 0 1 .08-.611 4.765 4.765 0 0 0 .133-.584 1.866 1.866 0 0 1 .837-.8 2.558 2.558 0 0 1 1.235-.239 1.874 1.874 0 0 1 .944.425 1.8 1.8 0 0 1 .571.956 1.116 1.116 0 0 1 .146.478q.013.24.013.532v12.94a1.949 1.949 0 0 1-.718 1.3 2.158 2.158 0 0 1-1.434.425 1.976 1.976 0 0 1-1.182-.637 1.809 1.809 0 0 1-.492-1.275q-.107-1.62-.12-3.308t-.013-3.359z" transform="translate(-939.619 -51.318)"/>
    <path id="패스_64" data-name="패스 64" class="cls-2" d="m882.457 72.808-1.885 1.092-.437.253a2.2 2.2 0 0 1-1.573.174 1.814 1.814 0 0 1-1.183-.85 1.86 1.86 0 0 1-.173-1.465 2.072 2.072 0 0 1 .853-1.231l4.782-2.769a2 2 0 0 1 1.492-.127 1.9 1.9 0 0 1 1.162.893 2.032 2.032 0 0 1 .175 1.5 2.11 2.11 0 0 1-.914 1.2l-.161.093z" transform="translate(-871.147 -56.788)"/>
    <path id="사각형_78" data-name="사각형 78" class="cls-2" d="M2.876 0h11.586a2.876 2.876 0 0 1 2.876 2.876 1.183 1.183 0 0 1-1.183 1.183H1.183A1.183 1.183 0 0 1 0 2.876 2.876 2.876 0 0 1 2.876 0z" transform="translate(82.662 6.129)"/>
    <rect id="사각형_80" data-name="사각형 80" width="17.218" height="3.53" rx="1.765" transform="translate(82.41 11.37)" style="fill:#562c00"/>
    <path id="패스_66" data-name="패스 66" d="M1029.914 73.447h13.686a1.832 1.832 0 0 0 1.75-1.774h-17.181v.091a1.822 1.822 0 0 0 1.745 1.683z" transform="translate(-945.742 -58.579)" style="fill:#261301;opacity:.57"/>
    <path id="패스_67" data-name="패스 67" d="M1048.135 68.213h4.909l-1.336 1.527z" transform="translate(-955.453 -56.778)" style="fill:#ffc517"/>
    <path id="사각형_1047" data-name="사각형 1047" d="M2.779 0h11.78a2.779 2.779 0 0 1 2.779 2.779 1.143 1.143 0 0 1-1.143 1.143H1.143A1.143 1.143 0 0 1 0 2.779 2.779 2.779 0 0 1 2.779 0z" transform="rotate(180 50 11)" style="fill:url(#linear-gradient-8)"/>
</svg>
