<svg id="상단_로고" data-name="상단 로고" xmlns="http://www.w3.org/2000/svg" xmlns:xlink="http://www.w3.org/1999/xlink" width="196" height="68">
    <defs>
        <linearGradient id="linear-gradient" y1=".5" x2="1" y2=".5" gradientUnits="objectBoundingBox">
            <stop offset=".358" stop-color="#ff5c17"/>
            <stop offset=".503" stop-color="#ff6917"/>
            <stop offset=".691" stop-color="#ff7117"/>
            <stop offset="1" stop-color="#ff7417"/>
        </linearGradient>
        <linearGradient id="linear-gradient-8" x1="163.754" y1="208.916" x2="164.754" y2="208.916" xlink:href="#linear-gradient"/>
        <style>
            .cls-1{fill:#04ba89}.cls-2{fill:url(#linear-gradient)}
        </style>
    </defs>
    <g id="상단_로고-2" data-name="상단 로고">
        <g id="그룹_90" data-name="그룹 90">
            <g id="그룹_86" data-name="그룹 86" transform="translate(162.756 31.783)">
                <path id="패스_50" data-name="패스 50" class="cls-1" d="M1032.871 76.283a2.115 2.115 0 1 1-4.171-.013" transform="translate(-1028.7 -76.27)"/>
                <path id="패스_51" data-name="패스 51" class="cls-1" d="M1036.4 76.283a2.115 2.115 0 1 1-4.171-.013" transform="translate(-1028.7 -76.27)"/>
                <path id="패스_52" data-name="패스 52" class="cls-1" d="M1039.937 76.283a2.115 2.115 0 1 1-4.171-.013" transform="translate(-1028.7 -76.27)"/>
                <path id="패스_53" data-name="패스 53" class="cls-1" d="M1043.471 76.283a2.115 2.115 0 1 1-4.171-.013" transform="translate(-1028.7 -76.27)"/>
                <path id="패스_54" data-name="패스 54" class="cls-1" d="M1047 76.283a2.115 2.115 0 1 1-4.171-.013" transform="translate(-1028.7 -76.27)"/>
                <path id="패스_55" data-name="패스 55" class="cls-1" d="M1050.537 76.283a2.115 2.115 0 1 1-4.171-.013" transform="translate(-1028.7 -76.27)"/>
                <path id="패스_56" data-name="패스 56" class="cls-1" d="M1054.07 76.283a2.115 2.115 0 1 1-4.171-.013" transform="translate(-1028.7 -76.27)"/>
                <path id="패스_57" data-name="패스 57" class="cls-1" d="M1057.6 76.283a2.115 2.115 0 1 1-4.171-.013" transform="translate(-1028.7 -76.27)"/>
                <path id="패스_58" data-name="패스 58" class="cls-1" d="M1061.136 76.283a2.115 2.115 0 1 1-4.171-.013" transform="translate(-1028.7 -76.27)"/>
            </g>
            <path id="패스_59" data-name="패스 59" class="cls-2" d="M882.24 55.556h13.4a3.027 3.027 0 0 1 2.276 1.164 3.8 3.8 0 0 1 .931 2.508 3.792 3.792 0 0 1-3.31 3.673h-21.418q-1.035 0-1.035.776v21.207a4.215 4.215 0 0 1-1.164 2.793 3.387 3.387 0 0 1-2.767.983 3.326 3.326 0 0 1-2.612-1.138 4.409 4.409 0 0 1-1.06-2.9V59.487a3.979 3.979 0 0 1 1.4-3.1 2.4 2.4 0 0 1 1.293-.7 8.339 8.339 0 0 1 1.449-.129z" transform="translate(-865.481 -44.487)"/>
            <path id="패스_60" data-name="패스 60" class="cls-2" d="M919.584 88.918h-12.051q-4.553 0-4.552-4.551V60.159c0-.275.008-.534.026-.775a2.729 2.729 0 0 1 .181-.776 3.547 3.547 0 0 1 2.793-2.845 4.036 4.036 0 0 1 1.138-.31c.344-.034.689-.052 1.034-.052h23.587a5.578 5.578 0 0 1 3.6 1.164 4.686 4.686 0 0 1 1.163 3.594v24.389a.461.461 0 0 1-.1.336q-.465 4.035-4.241 4.034h-12.57zm9.156-16.758v-7.4q0-1.189-.311-1.4a3.311 3.311 0 0 0-1.5-.207H912.4a2.81 2.81 0 0 0-1.345.207q-.31.208-.311 1.345v14.851q0 1.191.285 1.371a2.452 2.452 0 0 0 1.164.181h14.948a2.957 2.957 0 0 0 1.319-.181c.189-.12.285-.577.285-1.371z" transform="translate(-865.588 -44.487)"/>
            <path id="패스_61" data-name="패스 61" class="cls-2" d="M957.24 88.918h-12.052q-4.552 0-4.552-4.551V60.159c0-.275.009-.534.026-.775a2.8 2.8 0 0 1 .181-.776 3.549 3.549 0 0 1 2.793-2.845 4.037 4.037 0 0 1 1.138-.31c.345-.034.69-.052 1.035-.052H969.4a5.576 5.576 0 0 1 3.595 1.164 4.686 4.686 0 0 1 1.164 3.594v24.389a.466.466 0 0 1-.1.336q-.467 4.035-4.242 4.034H957.24zm9.16-16.758v-7.4q0-1.189-.31-1.4a3.314 3.314 0 0 0-1.5-.207h-14.54a2.8 2.8 0 0 0-1.344.207q-.31.208-.311 1.345v14.851q0 1.191.285 1.371a2.45 2.45 0 0 0 1.163.181h14.949a2.96 2.96 0 0 0 1.319-.181q.283-.18.284-1.371z" transform="translate(-865.695 -44.487)"/>
            <path id="패스_62" data-name="패스 62" class="cls-2" d="M1011.913 66.832v16.862q0 .621-.026 1.216a4.5 4.5 0 0 1-.181 1.112 3.3 3.3 0 0 1-1.189 2.069 4.4 4.4 0 0 1-2.225.879h-26.276a3.622 3.622 0 0 1-3.465-2.953 3.338 3.338 0 0 1-.233-1.114q-.027-.594-.026-1.217V60.995c0-.414.008-.793.026-1.139a3.7 3.7 0 0 1 .233-1.088 3.354 3.354 0 0 1 3.517-3.005h16.345a3.388 3.388 0 0 1 2.587 1.042 4.128 4.128 0 0 1 1.087 2.656 3.757 3.757 0 0 1-1.035 2.631 3.431 3.431 0 0 1-2.638 1.119h-11.2a1.167 1.167 0 0 0-.776.207 1.045 1.045 0 0 0-.259.75q-.027.543-.026 1.63v14.069c0 .414.008.733.026.957a.758.758 0 0 0 .181.491.8.8 0 0 0 .517.181c.241.018.569.026.983.026h14.121q.776 0 1.19-.026a.928.928 0 0 0 .62-.233.962.962 0 0 0 .233-.646q.025-.439.026-1.216V49.194a3.778 3.778 0 0 1 .155-1.086q.156-.518.311-1.087a4.238 4.238 0 0 1 1.5-1.862 3.766 3.766 0 0 1 2.172-.672 4.463 4.463 0 0 1 2.276.879 3.515 3.515 0 0 1 1.241 2.069 4.948 4.948 0 0 1 .181 1.242q.025.725.026 1.293z" transform="translate(-865.802 -44.487)"/>
            <path id="패스_63" data-name="패스 63" class="cls-2" d="M1016.051 72.315V60.159a4.166 4.166 0 0 1 .155-1.189 9.321 9.321 0 0 0 .259-1.138 3.634 3.634 0 0 1 1.629-1.552 4.98 4.98 0 0 1 2.405-.465 3.648 3.648 0 0 1 1.837.827 3.509 3.509 0 0 1 1.112 1.862 2.173 2.173 0 0 1 .284.931q.026.466.026 1.035v25.19a3.8 3.8 0 0 1-1.4 2.534 4.2 4.2 0 0 1-2.793.828 3.848 3.848 0 0 1-2.3-1.241 3.524 3.524 0 0 1-.957-2.483q-.208-3.154-.233-6.44t-.024-6.543z" transform="translate(-865.85 -44.487)"/>
            <g id="그룹_87" data-name="그룹 87" transform="translate(11.65 23.309)">
                <path id="패스_64" data-name="패스 64" class="cls-2" d="m887.5 77.555-3.67 2.125-.85.493a4.288 4.288 0 0 1-3.062.339 3.533 3.533 0 0 1-2.3-1.655 3.622 3.622 0 0 1-.34-2.857 4.034 4.034 0 0 1 1.661-2.4l9.31-5.391a3.89 3.89 0 0 1 2.9-.248 3.706 3.706 0 0 1 2.262 1.738 3.958 3.958 0 0 1 .34 2.911 4.108 4.108 0 0 1-1.779 2.346l-.313.181z" transform="translate(-877.131 -67.796)"/>
            </g>
            <path id="사각형_78" data-name="사각형 78" class="cls-2" d="M5.3 0h23.161a5.3 5.3 0 0 1 5.3 5.3v.429A2.179 2.179 0 0 1 31.577 7.9H2.179A2.179 2.179 0 0 1 0 5.724V5.3A5.3 5.3 0 0 1 5.3 0z" transform="translate(162.025 12.829)"/>
            <path id="사각형_79" data-name="사각형 79" d="M5.205 0h23.346a5.205 5.205 0 0 1 5.205 5.205V5.5a2.142 2.142 0 0 1-2.142 2.142H2.142A2.142 2.142 0 0 1 0 5.5v-.29A5.205 5.205 0 0 1 5.205 0z" transform="rotate(180 98 21.855)" style="fill:url(#linear-gradient-8)"/>
            <g id="그룹_88" data-name="그룹 88" transform="translate(162.192 23.749)">
                <rect id="사각형_80" data-name="사각형 80" width="33.523" height="6.873" rx="3.436" style="fill:#562c00"/>
                <path id="패스_66" data-name="패스 66" d="M1031.564 75.127h26.651a3.566 3.566 0 0 0 3.408-3.454h-33.451v.177a3.548 3.548 0 0 0 3.392 3.277z" transform="translate(-1028.136 -68.236)" style="fill:#261301;opacity:.57"/>
            </g>
            <g id="그룹_89" data-name="그룹 89" transform="translate(182.191 23.726)">
                <path id="패스_67" data-name="패스 67" d="M1048.135 68.213h9.557l-2.6 2.973z" transform="translate(-1048.135 -68.213)" style="fill:#ffc517"/>
            </g>
        </g>
        <text id="Delicious_Addiction" data-name="Delicious Addiction" transform="translate(14.408 64)" style="fill:#c73425;font-size:16px;font-family:Copperplate"><tspan x="0" y="0">Delicious Addiction</tspan></text>
    </g>
</svg>
